<?xml version="1.0" standalone="no"?>
<!DOCTYPE svg PUBLIC "-//W3C//DTD SVG 20010904//EN"
 "http://www.w3.org/TR/2001/REC-SVG-20010904/DTD/svg10.dtd">
<svg version="1.0" xmlns="http://www.w3.org/2000/svg"
 width="500.000000pt" height="500.000000pt" viewBox="0 0 500.000000 500.000000"
 preserveAspectRatio="xMidYMid meet">
<metadata>
Created by potrace 1.14, written by Peter Selinger 2001-2017
</metadata>
<g transform="translate(0.000000,500.000000) scale(0.100000,-0.100000)"
fill="#000000" stroke="none">
<path d="M1127 4989 c-545 -81 -967 -467 -1095 -1003 l-27 -111 0 -1370 c0
-1287 1 -1375 18 -1455 100 -466 426 -836 868 -984 193 -64 105 -61 1609 -61
1282 0 1370 1 1450 18 255 55 459 161 641 335 202 192 327 416 386 692 17 80
18 168 18 1450 0 1282 -1 1370 -18 1450 -110 512 -478 892 -987 1018 l-105 26
-1350 2 c-742 1 -1376 -2 -1408 -7z m2804 -212 c437 -109 737 -409 846 -846
15 -59 17 -203 21 -1371 2 -932 0 -1332 -8 -1400 -14 -113 -66 -276 -121 -380
-156 -291 -436 -496 -769 -562 -95 -19 -2705 -19 -2800 0 -395 79 -708 349
-838 722 -59 172 -57 107 -57 1560 0 1453 -2 1388 57 1560 129 372 463 659
838 720 41 6 82 13 90 15 8 2 614 2 1345 1 1195 -2 1337 -4 1396 -19z"/>
<path d="M2082 3163 c-25 -65 -513 -1302 -529 -1340 -4 -10 16 -13 80 -13 l85
0 52 133 c28 72 68 174 87 225 l36 92 287 0 287 0 88 -225 89 -225 87 0 86 0
-189 483 c-104 265 -230 587 -280 715 l-91 232 -73 0 -73 0 -29 -77z m118
-165 c7 -24 56 -163 111 -309 54 -146 99 -269 99 -273 0 -3 -101 -6 -225 -6
-140 0 -225 4 -225 10 0 5 40 117 89 248 49 130 97 264 106 297 26 91 29 93
45 33z"/>
<path d="M3385 2886 c-22 -7 -54 -20 -72 -29 -41 -22 -128 -108 -150 -150
l-17 -32 -7 40 c-4 22 -8 58 -9 80 -1 81 -5 85 -76 85 l-64 0 0 -535 0 -535
80 0 79 0 3 338 c3 329 4 338 27 397 17 41 42 78 80 116 73 73 132 94 242 86
88 -6 84 -9 95 81 l6 59 -32 7 c-51 10 -141 6 -185 -8z"/>
</g>
</svg>
