<?xml version="1.0" standalone="no"?>
<!DOCTYPE svg PUBLIC "-//W3C//DTD SVG 20010904//EN"
 "http://www.w3.org/TR/2001/REC-SVG-20010904/DTD/svg10.dtd">
<svg version="1.0" xmlns="http://www.w3.org/2000/svg"
 width="500.000000pt" height="500.000000pt" viewBox="0 0 500.000000 500.000000"
 preserveAspectRatio="xMidYMid meet">
<metadata>
Created by potrace 1.14, written by Peter Selinger 2001-2017
</metadata>
<g transform="translate(0.000000,500.000000) scale(0.100000,-0.100000)"
fill="#000000" stroke="none">
<path d="M1127 4989 c-545 -81 -967 -467 -1095 -1003 l-27 -111 0 -1370 c0
-1287 1 -1375 18 -1455 100 -466 426 -836 868 -984 193 -64 105 -61 1609 -61
1282 0 1370 1 1450 18 255 55 459 161 641 335 202 192 327 416 386 692 17 80
18 168 18 1450 0 1282 -1 1370 -18 1450 -110 512 -478 892 -987 1018 l-105 26
-1350 2 c-742 1 -1376 -2 -1408 -7z m2804 -212 c437 -109 737 -409 846 -846
15 -59 17 -203 21 -1371 2 -932 0 -1332 -8 -1400 -14 -113 -66 -276 -121 -380
-156 -291 -436 -496 -769 -562 -95 -19 -2705 -19 -2800 0 -395 79 -708 349
-838 722 -59 172 -57 107 -57 1560 0 1453 -2 1388 57 1560 129 372 463 659
838 720 41 6 82 13 90 15 8 2 614 2 1345 1 1195 -2 1337 -4 1396 -19z"/>
<path d="M1380 2555 l0 -715 76 0 76 0 -4 595 c-2 327 -3 595 -2 595 1 0 176
-268 389 -595 l387 -595 94 0 94 0 0 715 0 715 -76 0 -75 0 3 -596 c3 -530 1
-593 -12 -576 -8 10 -184 278 -390 595 l-375 576 -92 1 -93 0 0 -715z"/>
<path d="M3155 2921 c-79 -13 -224 -62 -252 -86 -4 -2 43 -116 48 -117 2 -1
42 13 89 32 108 42 244 53 315 26 85 -33 125 -110 125 -240 l0 -53 -152 -7
c-300 -13 -442 -68 -514 -198 -27 -48 -29 -61 -29 -148 1 -114 23 -169 92
-229 76 -68 205 -95 338 -72 88 16 157 51 217 113 27 28 50 49 52 47 2 -2 9
-35 17 -74 l15 -70 63 -3 62 -3 -3 423 c-3 412 -4 424 -26 480 -28 70 -89 128
-165 156 -64 24 -212 36 -292 23z m321 -653 c-13 -185 -96 -284 -257 -307
-168 -24 -267 41 -268 177 -2 106 63 172 199 203 48 11 309 28 324 20 5 -2 6
-44 2 -93z"/>
</g>
</svg>
