<?xml version="1.0" standalone="no"?>
<!DOCTYPE svg PUBLIC "-//W3C//DTD SVG 20010904//EN"
 "http://www.w3.org/TR/2001/REC-SVG-20010904/DTD/svg10.dtd">
<svg version="1.0" xmlns="http://www.w3.org/2000/svg"
 width="500.000000pt" height="500.000000pt" viewBox="0 0 500.000000 500.000000"
 preserveAspectRatio="xMidYMid meet">
<metadata>
Created by potrace 1.14, written by Peter Selinger 2001-2017
</metadata>
<g transform="translate(0.000000,500.000000) scale(0.100000,-0.100000)"
fill="#000000" stroke="none">
<path d="M1127 4989 c-545 -81 -967 -467 -1095 -1003 l-27 -111 0 -1370 c0
-1287 1 -1375 18 -1455 100 -466 426 -836 868 -984 193 -64 105 -61 1609 -61
1282 0 1370 1 1450 18 255 55 459 161 641 335 202 192 327 416 386 692 17 80
18 168 18 1450 0 1282 -1 1370 -18 1450 -110 512 -478 892 -987 1018 l-105 26
-1350 2 c-742 1 -1376 -2 -1408 -7z m2804 -212 c437 -109 737 -409 846 -846
15 -59 17 -203 21 -1371 2 -932 0 -1332 -8 -1400 -14 -113 -66 -276 -121 -380
-156 -291 -436 -496 -769 -562 -95 -19 -2705 -19 -2800 0 -395 79 -708 349
-838 722 -59 172 -57 107 -57 1560 0 1453 -2 1388 57 1560 129 372 463 659
838 720 41 6 82 13 90 15 8 2 614 2 1345 1 1195 -2 1337 -4 1396 -19z"/>
<path d="M3418 3130 c-256 -46 -434 -219 -495 -479 -26 -108 -25 -385 0 -494
29 -121 88 -230 171 -313 112 -112 231 -160 421 -170 425 -23 695 260 695 729
0 375 -166 633 -458 713 -66 18 -266 27 -334 14z m275 -155 c171 -44 281 -168
322 -361 19 -91 19 -327 0 -417 -53 -249 -206 -377 -454 -377 -160 0 -252 34
-343 127 -56 58 -91 125 -120 230 -30 111 -30 344 0 455 51 188 152 299 313
342 71 19 210 20 282 1z"/>
<path d="M980 2405 l0 -715 80 0 80 0 0 335 0 335 375 0 375 0 0 -335 0 -335
85 0 85 0 0 715 0 715 -85 0 -85 0 0 -305 0 -305 -375 0 -375 0 0 305 0 305
-80 0 -80 0 0 -715z"/>
<path d="M2456 1965 c-45 -17 -106 -54 -106 -63 1 -4 9 -17 19 -29 l18 -21 58
29 c43 21 72 29 112 29 95 0 133 -36 133 -127 0 -79 -31 -126 -197 -294 -142
-144 -153 -158 -153 -192 l0 -37 235 0 235 0 0 40 0 40 -181 0 -182 0 135 139
c159 163 193 219 192 316 -1 75 -22 117 -76 153 -36 23 -53 27 -122 29 -52 2
-95 -3 -120 -12z"/>
</g>
</svg>
