<?xml version="1.0" standalone="no"?>
<!DOCTYPE svg PUBLIC "-//W3C//DTD SVG 20010904//EN"
 "http://www.w3.org/TR/2001/REC-SVG-20010904/DTD/svg10.dtd">
<svg version="1.0" xmlns="http://www.w3.org/2000/svg"
 width="500.000000pt" height="500.000000pt" viewBox="0 0 500.000000 500.000000"
 preserveAspectRatio="xMidYMid meet">
<metadata>
Created by potrace 1.14, written by Peter Selinger 2001-2017
</metadata>
<g transform="translate(0.000000,500.000000) scale(0.100000,-0.100000)"
fill="#000000" stroke="none">
<path d="M2395 4987 c-151 -39 -304 -177 -430 -389 -91 -152 -190 -399 -245
-610 -13 -49 -27 -88 -31 -88 -4 0 -62 13 -128 29 -255 63 -357 76 -591 75
-240 0 -307 -12 -435 -75 -416 -207 -313 -747 253 -1331 l95 -98 -99 -103
c-564 -585 -664 -1115 -250 -1324 130 -65 194 -77 436 -77 235 -1 328 11 593
75 71 17 130 30 131 28 2 -2 19 -61 39 -130 144 -509 376 -858 630 -946 70
-24 204 -24 274 0 254 88 482 431 629 942 20 72 38 132 40 134 1 2 60 -11 131
-28 257 -62 360 -75 583 -76 239 0 313 13 439 76 95 47 156 100 198 170 164
274 -3 706 -451 1166 l-89 93 94 97 c230 237 396 485 470 703 30 86 33 106 33
215 0 101 -3 129 -22 175 -66 166 -233 276 -471 311 -188 27 -486 0 -784 -72
-71 -17 -130 -30 -131 -28 -2 2 -19 61 -39 130 -144 510 -376 858 -629 946
-59 20 -182 25 -243 10z m236 -389 c118 -59 241 -203 349 -410 59 -113 143
-325 137 -342 -3 -7 -25 -18 -48 -25 -68 -20 -310 -117 -446 -178 l-123 -55
-122 55 c-137 61 -379 158 -447 178 -23 7 -45 18 -48 25 -7 18 80 232 144 354
70 134 130 218 213 301 133 131 259 163 391 97z m1410 -853 c137 -29 229 -77
284 -149 39 -51 54 -101 55 -177 1 -172 -100 -393 -296 -650 -117 -152 -87
-151 -268 -6 -85 68 -205 159 -266 202 -105 75 -110 80 -110 114 -1 53 -36
313 -65 478 -14 80 -24 147 -22 150 8 8 220 44 312 53 109 10 286 3 376 -15z
m-2517 -14 c66 -12 121 -23 123 -25 2 -2 -8 -68 -22 -147 -28 -163 -65 -434
-65 -483 0 -29 -7 -38 -62 -77 -91 -63 -279 -206 -380 -289 -48 -39 -92 -69
-97 -65 -20 12 -131 153 -197 251 -178 261 -247 522 -176 660 51 100 169 166
347 194 100 15 394 5 529 -19z m420 -96 c98 -30 214 -71 351 -125 29 -11 29
-11 -95 -76 -139 -73 -196 -106 -353 -207 -60 -38 -111 -66 -114 -63 -14 14
75 506 92 506 2 0 56 -16 119 -35z m1246 -2 c26 -95 87 -460 77 -469 -3 -3
-54 25 -114 63 -157 101 -214 134 -353 207 -124 65 -124 65 -95 76 171 67 435
157 467 160 4 0 12 -17 18 -37z m-504 -297 c184 -92 380 -207 527 -309 l94
-66 6 -98 c8 -119 7 -649 -2 -753 l-6 -74 -110 -74 c-60 -41 -166 -108 -235
-149 -139 -83 -434 -233 -459 -233 -49 0 -443 214 -666 362 l-140 93 -6 75
c-8 97 -8 683 0 779 l6 75 93 64 c51 35 152 100 225 144 145 88 460 248 487
248 9 0 93 -38 186 -84z m-1141 -836 c0 -187 -1 -340 -3 -340 -10 0 -233 189
-347 294 l-50 46 65 61 c72 68 322 279 330 279 3 0 5 -153 5 -340z m2026 252
c58 -48 146 -124 195 -170 l89 -83 -50 -45 c-127 -116 -338 -294 -347 -294 -2
0 -3 153 -3 340 0 187 2 340 5 340 3 0 53 -40 111 -88z m-2403 -501 c73 -60
191 -150 262 -202 121 -86 130 -95 130 -125 0 -49 37 -321 65 -483 14 -79 24
-145 23 -147 -10 -9 -194 -36 -315 -46 -323 -27 -575 38 -664 171 -41 62 -52
112 -46 206 9 135 80 303 208 490 69 102 184 245 197 245 4 0 67 -49 140 -109z
m2872 37 c90 -108 203 -280 255 -389 136 -289 108 -489 -82 -584 -165 -82
-454 -96 -775 -39 -49 9 -88 19 -88 23 0 4 9 56 20 116 26 142 57 359 66 461
l6 82 129 92 c71 51 188 141 261 201 73 60 136 109 140 109 4 0 35 -33 68 -72z
m-2227 -495 c136 -88 203 -127 356 -209 153 -82 154 -83 125 -95 -186 -73
-462 -164 -471 -155 -10 10 -35 125 -63 289 -31 182 -34 217 -24 217 3 0 38
-21 77 -47z m1457 28 c0 -59 -79 -473 -93 -487 -9 -9 -285 82 -471 155 -29 12
-28 13 125 95 139 74 250 141 379 225 54 36 60 37 60 12z m-722 -430 c70 -36
257 -114 412 -171 85 -32 156 -63 158 -69 5 -16 -84 -234 -138 -339 -108 -206
-232 -351 -351 -411 -193 -96 -401 33 -584 365 -60 108 -156 332 -158 371 -2
22 9 28 153 82 156 59 360 144 415 174 39 21 48 21 93 -2z"/>
<path d="M2410 3070 c-212 -33 -393 -190 -461 -400 -31 -93 -30 -250 0 -340
65 -189 212 -332 396 -386 80 -23 230 -23 310 0 184 54 331 197 395 386 29 85
32 237 6 325 -56 188 -214 348 -396 399 -72 20 -181 27 -250 16z"/>
</g>
</svg>
